HIERARCHY
ROOT Hips
{
	OFFSET 0.0000 0.0000 0.0000
	CHANNELS 6 Xposition Yposition Zposition Zrotation Xrotation Yrotation
	JOINT LHipJoint
	{
		OFFSET 0.0000 0.0000 0.0000
		CHANNELS 3 Zrotation Xrotation Yrotation
		JOINT LeftUpLeg
		{
			OFFSET 2.0000 0.0000 0.0000
			CHANNELS 3 Zrotation Xrotation Yrotation
			JOINT LeftKnee
			{
				OFFSET 0.0000 -5.0000 0.0000
				CHANNELS 3 Zrotation Xrotation Yrotation
				JOINT LeftFoot
				{
					OFFSET 0.0000 -6.0000 0.0000
					CHANNELS 3 Zrotation Xrotation Yrotation
				}
			}
		}
	}
	JOINT RHipJoint
	{
		OFFSET 0.0000 0.0000 0.0000
		CHANNELS 3 Zrotation Xrotation Yrotation
		JOINT RightUpLeg
		{
			OFFSET -2.0000 0.0000 0.0000
			CHANNELS 3 Zrotation Xrotation Yrotation
			JOINT RightKnee
			{
				OFFSET 0.0000 -5.0000 0.0000
				CHANNELS 3 Zrotation Xrotation Yrotation
				JOINT RightFoot
				{
					OFFSET 0.0000 -6.0000 0.0000
					CHANNELS 3 Zrotation Xrotation Yrotation
				}
			}
		}
	}
	JOINT NECK
	{
		OFFSET 0.0000 0.0000 12.0000
		CHANNELS 3 Zrotation Xrotation Yrotation
		JOINT LShoulder
		{
			OFFSET 0.0000 0.0000 0.0000
			CHANNELS 3 Zrotation Xrotation Yrotation
			JOINT LLimb
			{
				OFFSET 2.0000 0.0000 0.0000
				CHANNELS 3 Zrotation Xrotation Yrotation
				JOINT LShoulder
				{
					OFFSET 0.0000 -5.0000 0.0000
					CHANNELS 3 Zrotation Xrotation Yrotation
					JOINT LHand
					{
						OFFSET 0.0000 -6.0000 0.0000
						CHANNELS 3 Zrotation Xrotation Yrotation
					}
				}
			}
		}
		JOINT RShoulder
		{
			OFFSET 0.0000 0.0000 0.0000
			CHANNELS 3 Zrotation Xrotation Yrotation
			JOINT RLimb
			{
				OFFSET -2.0000 0.0000 0.0000
				CHANNELS 3 Zrotation Xrotation Yrotation
				JOINT RShoulder
				{
					OFFSET 0.0000 -5.0000 0.0000
					CHANNELS 3 Zrotation Xrotation Yrotation
					JOINT RHand
					{
						OFFSET 0.0000 -6.0000 0.0000
						CHANNELS 3 Zrotation Xrotation Yrotation
					}
				}
			}
		}
	}
}
MOTION
Frames: 24
Frame Time: 0.008333
8.8721 15.7511 -18.4025 0.0000 0.0000 0.0000 0.0000 0.0000 0.0000 0.0000 30.0106 0.0000 0.0000 7.4980 0.0000 0.0000 0.0000 0.0000 0.0000 0.0000 0.0000 0.0000 -30.0106 0.0000 0.0000 7.4959 0.0000 0.0000 0.0000 0.0000 0.0000 0.0000 0.0000 0.0000 0.0000 0.0000 0.0000 -30.0106 0.0000 0.0000 7.4959 0.0000 0.0000 0.0000 0.0000 0.0000 0.0000 0.0000 0.0000 30.0106 0.0000 0.0000 7.4980 0.0000 0.0000 0.0000 0.0000 
8.8721 15.7572 -18.3919 0.0000 0.0000 0.0000 0.0000 0.0000 0.0000 0.0000 29.9472 0.0000 0.0000 7.6402 0.0000 0.0000 0.0000 0.0000 0.0000 0.0000 0.0000 0.0000 -29.9472 0.0000 0.0000 7.4959 0.0000 0.0000 0.0000 0.0000 0.0000 0.0000 0.0000 0.0000 0.0000 0.0000 0.0000 -29.9472 0.0000 0.0000 7.4959 0.0000 0.0000 0.0000 0.0000 0.0000 0.0000 0.0000 0.0000 29.9472 0.0000 0.0000 7.6402 0.0000 0.0000 0.0000 0.0000 
8.8721 15.7756 -18.3599 0.0000 0.0000 0.0000 0.0000 0.0000 0.0000 0.0000 29.7552 0.0000 0.0000 8.0297 0.0000 0.0000 0.0000 0.0000 0.0000 0.0000 0.0000 0.0000 -29.7552 0.0000 0.0000 7.4959 0.0000 0.0000 0.0000 0.0000 0.0000 0.0000 0.0000 0.0000 0.0000 0.0000 0.0000 -29.7552 0.0000 0.0000 7.4959 0.0000 0.0000 0.0000 0.0000 0.0000 0.0000 0.0000 0.0000 29.7552 0.0000 0.0000 8.0297 0.0000 0.0000 0.0000 0.0000 
8.8721 15.8048 -18.3085 0.0000 0.0000 0.0000 0.0000 0.0000 0.0000 0.0000 29.4472 0.0000 0.0000 8.6703 0.0000 0.0000 0.0000 0.0000 0.0000 0.0000 0.0000 0.0000 -29.4472 0.0000 0.0000 7.4959 0.0000 0.0000 0.0000 0.0000 0.0000 0.0000 0.0000 0.0000 0.0000 0.0000 0.0000 -29.4472 0.0000 0.0000 7.4959 0.0000 0.0000 0.0000 0.0000 0.0000 0.0000 0.0000 0.0000 29.4472 0.0000 0.0000 8.6703 0.0000 0.0000 0.0000 0.0000 
8.8721 15.8454 -18.2359 0.0000 0.0000 0.0000 0.0000 0.0000 0.0000 0.0000 29.0139 0.0000 0.0000 9.5513 0.0000 0.0000 0.0000 0.0000 0.0000 0.0000 0.0000 0.0000 -29.0139 0.0000 0.0000 7.4959 0.0000 0.0000 0.0000 0.0000 0.0000 0.0000 0.0000 0.0000 0.0000 0.0000 0.0000 -29.0139 0.0000 0.0000 7.4959 0.0000 0.0000 0.0000 0.0000 0.0000 0.0000 0.0000 0.0000 29.0139 0.0000 0.0000 9.5513 0.0000 0.0000 0.0000 0.0000 
8.8721 15.8974 -18.1411 0.0000 0.0000 0.0000 0.0000 0.0000 0.0000 0.0000 28.4503 0.0000 0.0000 10.6606 0.0000 0.0000 0.0000 0.0000 0.0000 0.0000 0.0000 0.0000 -28.4503 0.0000 0.0000 7.4959 0.0000 0.0000 0.0000 0.0000 0.0000 0.0000 0.0000 0.0000 0.0000 0.0000 0.0000 -28.4503 0.0000 0.0000 7.4959 0.0000 0.0000 0.0000 0.0000 0.0000 0.0000 0.0000 0.0000 28.4503 0.0000 0.0000 10.6606 0.0000 0.0000 0.0000 0.0000 
8.8721 15.9594 -18.0249 0.0000 0.0000 0.0000 0.0000 0.0000 0.0000 0.0000 27.7645 0.0000 0.0000 11.9628 0.0000 0.0000 0.0000 0.0000 0.0000 0.0000 0.0000 0.0000 -27.7645 0.0000 0.0000 7.4959 0.0000 0.0000 0.0000 0.0000 0.0000 0.0000 0.0000 0.0000 0.0000 0.0000 0.0000 -27.7645 0.0000 0.0000 7.4959 0.0000 0.0000 0.0000 0.0000 0.0000 0.0000 0.0000 0.0000 27.7645 0.0000 0.0000 11.9628 0.0000 0.0000 0.0000 0.0000 
8.8721 16.0304 -17.8878 0.0000 0.0000 0.0000 0.0000 0.0000 0.0000 0.0000 26.9605 0.0000 0.0000 13.4476 0.0000 0.0000 0.0000 0.0000 0.0000 0.0000 0.0000 0.0000 -26.9605 0.0000 0.0000 7.4959 0.0000 0.0000 0.0000 0.0000 0.0000 0.0000 0.0000 0.0000 0.0000 0.0000 0.0000 -26.9605 0.0000 0.0000 7.4959 0.0000 0.0000 0.0000 0.0000 0.0000 0.0000 0.0000 0.0000 26.9605 0.0000 0.0000 13.4476 0.0000 0.0000 0.0000 0.0000 
8.8721 16.1093 -17.7295 0.0000 0.0000 0.0000 0.0000 0.0000 0.0000 0.0000 26.0391 0.0000 0.0000 15.0835 0.0000 0.0000 0.0000 0.0000 0.0000 0.0000 0.0000 0.0000 -26.0391 0.0000 0.0000 7.4959 0.0000 0.0000 0.0000 0.0000 0.0000 0.0000 0.0000 0.0000 0.0000 0.0000 0.0000 -26.0391 0.0000 0.0000 7.4959 0.0000 0.0000 0.0000 0.0000 0.0000 0.0000 0.0000 0.0000 26.0391 0.0000 0.0000 15.0835 0.0000 0.0000 0.0000 0.0000 
8.8721 16.1954 -17.5492 0.0000 0.0000 0.0000 0.0000 0.0000 0.0000 0.0000 24.9981 0.0000 0.0000 16.8477 0.0000 0.0000 0.0000 0.0000 0.0000 0.0000 0.0000 0.0000 -24.9981 0.0000 0.0000 7.4959 0.0000 0.0000 0.0000 0.0000 0.0000 0.0000 0.0000 0.0000 0.0000 0.0000 0.0000 -24.9981 0.0000 0.0000 7.4959 0.0000 0.0000 0.0000 0.0000 0.0000 0.0000 0.0000 0.0000 24.9981 0.0000 0.0000 16.8477 0.0000 0.0000 0.0000 0.0000 
8.8721 16.2868 -17.3480 0.0000 0.0000 0.0000 0.0000 0.0000 0.0000 0.0000 23.8472 0.0000 0.0000 18.7047 0.0000 0.0000 0.0000 0.0000 0.0000 0.0000 0.0000 0.0000 -23.8472 0.0000 0.0000 7.4959 0.0000 0.0000 0.0000 0.0000 0.0000 0.0000 0.0000 0.0000 0.0000 0.0000 0.0000 -23.8472 0.0000 0.0000 7.4959 0.0000 0.0000 0.0000 0.0000 0.0000 0.0000 0.0000 0.0000 23.8472 0.0000 0.0000 18.7047 0.0000 0.0000 0.0000 0.0000 
8.8721 16.3805 -17.1297 0.0000 0.0000 0.0000 0.0000 0.0000 0.0000 0.0000 22.6099 0.0000 0.0000 20.6269 0.0000 0.0000 0.0000 0.0000 0.0000 0.0000 0.0000 0.0000 -22.6099 0.0000 0.0000 7.4959 0.0000 0.0000 0.0000 0.0000 0.0000 0.0000 0.0000 0.0000 0.0000 0.0000 0.0000 -22.6099 0.0000 0.0000 7.4959 0.0000 0.0000 0.0000 0.0000 0.0000 0.0000 0.0000 0.0000 22.6099 0.0000 0.0000 20.6269 0.0000 0.0000 0.0000 0.0000 
8.8721 16.4762 -16.8922 0.0000 0.0000 0.0000 0.0000 0.0000 0.0000 0.0000 21.2760 0.0000 0.0000 22.5791 0.0000 0.0000 0.0000 0.0000 0.0000 0.0000 0.0000 0.0000 -21.2760 0.0000 0.0000 7.4959 0.0000 0.0000 0.0000 0.0000 0.0000 0.0000 0.0000 0.0000 0.0000 0.0000 0.0000 -21.2760 0.0000 0.0000 7.4959 0.0000 0.0000 0.0000 0.0000 0.0000 0.0000 0.0000 0.0000 21.2760 0.0000 0.0000 22.5791 0.0000 0.0000 0.0000 0.0000 
8.8721 16.5725 -16.6352 0.0000 0.0000 0.0000 0.0000 0.0000 0.0000 0.0000 19.8463 0.0000 0.0000 24.5296 0.0000 0.0000 0.0000 0.0000 0.0000 0.0000 0.0000 0.0000 -19.8463 0.0000 0.0000 7.4959 0.0000 0.0000 0.0000 0.0000 0.0000 0.0000 0.0000 0.0000 0.0000 0.0000 0.0000 -19.8463 0.0000 0.0000 7.4959 0.0000 0.0000 0.0000 0.0000 0.0000 0.0000 0.0000 0.0000 19.8463 0.0000 0.0000 24.5296 0.0000 0.0000 0.0000 0.0000 
8.8721 16.6677 -16.3602 0.0000 0.0000 0.0000 0.0000 0.0000 0.0000 0.0000 18.3306 0.0000 0.0000 26.4444 0.0000 0.0000 0.0000 0.0000 0.0000 0.0000 0.0000 0.0000 -18.3306 0.0000 0.0000 7.4959 0.0000 0.0000 0.0000 0.0000 0.0000 0.0000 0.0000 0.0000 0.0000 0.0000 0.0000 -18.3306 0.0000 0.0000 7.4959 0.0000 0.0000 0.0000 0.0000 0.0000 0.0000 0.0000 0.0000 18.3306 0.0000 0.0000 26.4444 0.0000 0.0000 0.0000 0.0000 
8.8721 16.7595 -16.0696 0.0000 0.0000 0.0000 0.0000 0.0000 0.0000 0.0000 16.7430 0.0000 0.0000 28.2941 0.0000 0.0000 0.0000 0.0000 0.0000 0.0000 0.0000 0.0000 -16.7430 0.0000 0.0000 7.4959 0.0000 0.0000 0.0000 0.0000 0.0000 0.0000 0.0000 0.0000 0.0000 0.0000 0.0000 -16.7430 0.0000 0.0000 7.4959 0.0000 0.0000 0.0000 0.0000 0.0000 0.0000 0.0000 0.0000 16.7430 0.0000 0.0000 28.2941 0.0000 0.0000 0.0000 0.0000 
8.8721 16.8469 -15.7633 0.0000 0.0000 0.0000 0.0000 0.0000 0.0000 0.0000 15.0842 0.0000 0.0000 30.0638 0.0000 0.0000 0.0000 0.0000 0.0000 0.0000 0.0000 0.0000 -15.0842 0.0000 0.0000 7.4959 0.0000 0.0000 0.0000 0.0000 0.0000 0.0000 0.0000 0.0000 0.0000 0.0000 0.0000 -15.0842 0.0000 0.0000 7.4959 0.0000 0.0000 0.0000 0.0000 0.0000 0.0000 0.0000 0.0000 15.0842 0.0000 0.0000 30.0638 0.0000 0.0000 0.0000 0.0000 
8.8721 16.9283 -15.4421 0.0000 0.0000 0.0000 0.0000 0.0000 0.0000 0.0000 13.3581 0.0000 0.0000 31.6981 0.0000 0.0000 0.0000 0.0000 0.0000 0.0000 0.0000 0.0000 -13.3581 0.0000 0.0000 7.4959 0.0000 0.0000 0.0000 0.0000 0.0000 0.0000 0.0000 0.0000 0.0000 0.0000 0.0000 -13.3581 0.0000 0.0000 7.4959 0.0000 0.0000 0.0000 0.0000 0.0000 0.0000 0.0000 0.0000 13.3581 0.0000 0.0000 31.6981 0.0000 0.0000 0.0000 0.0000 
8.8721 17.0022 -15.1077 0.0000 0.0000 0.0000 0.0000 0.0000 0.0000 0.0000 11.5742 0.0000 0.0000 33.1681 0.0000 0.0000 0.0000 0.0000 0.0000 0.0000 0.0000 0.0000 -11.5742 0.0000 0.0000 7.4959 0.0000 0.0000 0.0000 0.0000 0.0000 0.0000 0.0000 0.0000 0.0000 0.0000 0.0000 -11.5742 0.0000 0.0000 7.4959 0.0000 0.0000 0.0000 0.0000 0.0000 0.0000 0.0000 0.0000 11.5742 0.0000 0.0000 33.1681 0.0000 0.0000 0.0000 0.0000 
8.8721 17.0671 -14.7627 0.0000 0.0000 0.0000 0.0000 0.0000 0.0000 0.0000 9.7458 0.0000 0.0000 34.4512 0.0000 0.0000 0.0000 0.0000 0.0000 0.0000 0.0000 0.0000 -9.7458 0.0000 0.0000 7.4959 0.0000 0.0000 0.0000 0.0000 0.0000 0.0000 0.0000 0.0000 0.0000 0.0000 0.0000 -9.7458 0.0000 0.0000 7.4959 0.0000 0.0000 0.0000 0.0000 0.0000 0.0000 0.0000 0.0000 9.7458 0.0000 0.0000 34.4512 0.0000 0.0000 0.0000 0.0000 
8.8721 17.1221 -14.4081 0.0000 0.0000 0.0000 0.0000 0.0000 0.0000 0.0000 7.8763 0.0000 0.0000 35.5334 0.0000 0.0000 0.0000 0.0000 0.0000 0.0000 0.0000 0.0000 -7.8763 0.0000 0.0000 7.4959 0.0000 0.0000 0.0000 0.0000 0.0000 0.0000 0.0000 0.0000 0.0000 0.0000 0.0000 -7.8763 0.0000 0.0000 7.4959 0.0000 0.0000 0.0000 0.0000 0.0000 0.0000 0.0000 0.0000 7.8763 0.0000 0.0000 35.5334 0.0000 0.0000 0.0000 0.0000 
8.8721 17.1662 -14.0453 0.0000 0.0000 0.0000 0.0000 0.0000 0.0000 0.0000 5.9726 0.0000 0.0000 36.3884 0.0000 0.0000 0.0000 0.0000 0.0000 0.0000 0.0000 0.0000 -5.9726 0.0000 0.0000 7.4959 0.0000 0.0000 0.0000 0.0000 0.0000 0.0000 0.0000 0.0000 0.0000 0.0000 0.0000 -5.9726 0.0000 0.0000 7.4959 0.0000 0.0000 0.0000 0.0000 0.0000 0.0000 0.0000 0.0000 5.9726 0.0000 0.0000 36.3884 0.0000 0.0000 0.0000 0.0000 
8.8721 17.1985 -13.6762 0.0000 0.0000 0.0000 0.0000 0.0000 0.0000 0.0000 4.0429 0.0000 0.0000 37.0104 0.0000 0.0000 0.0000 0.0000 0.0000 0.0000 0.0000 0.0000 -4.0429 0.0000 0.0000 7.4959 0.0000 0.0000 0.0000 0.0000 0.0000 0.0000 0.0000 0.0000 0.0000 0.0000 0.0000 -4.0429 0.0000 0.0000 7.4959 0.0000 0.0000 0.0000 0.0000 0.0000 0.0000 0.0000 0.0000 4.0429 0.0000 0.0000 37.0104 0.0000 0.0000 0.0000 0.0000 
8.8721 17.2185 -13.3033 0.0000 0.0000 0.0000 0.0000 0.0000 0.0000 0.0000 2.0974 0.0000 0.0000 37.3805 0.0000 0.0000 0.0000 0.0000 0.0000 0.0000 0.0000 0.0000 -2.0974 0.0000 0.0000 7.4959 0.0000 0.0000 0.0000 0.0000 0.0000 0.0000 0.0000 0.0000 0.0000 0.0000 0.0000 -2.0974 0.0000 0.0000 7.4959 0.0000 0.0000 0.0000 0.0000 0.0000 0.0000 0.0000 0.0000 2.0974 0.0000 0.0000 37.3805 0.0000 0.0000 0.0000 0.0000 
